<?xml version="1.0" encoding="UTF-8" standalone="no"?>
<!DOCTYPE svg PUBLIC "-//W3C//DTD SVG 1.1//EN"
 "http://www.w3.org/Graphics/SVG/1.1/DTD/svg11.dtd">
<!-- Generated by graphviz version 13.1.2 (20250808.2320)
 -->
<!-- Title: DependencyGraph Pages: 1 -->
<svg width="388pt" height="332pt"
 viewBox="0.00 0.00 388.00 332.00" xmlns="http://www.w3.org/2000/svg" xmlns:xlink="http://www.w3.org/1999/xlink">
<g id="graph0" class="graph" transform="scale(1 1) rotate(0) translate(4 328)">
<title>DependencyGraph</title>
<polygon fill="white" stroke="none" points="-4,4 -4,-328 383.78,-328 383.78,4 -4,4"/>
<!-- container_system -->
<g id="node1" class="node">
<title>container_system</title>
<polygon fill="lightgreen" stroke="black" points="130.66,-36 19.41,-36 19.41,0 130.66,0 130.66,-36"/>
<text xml:space="preserve" text-anchor="middle" x="75.03" y="-12.95" font-family="Times,serif" font-size="14.00">container_system</text>
</g>
<!-- common_system -->
<g id="node4" class="node">
<title>common_system</title>
<polygon fill="lightcoral" stroke="black" points="129.91,-108 20.16,-108 20.16,-72 129.91,-72 129.91,-108"/>
<text xml:space="preserve" text-anchor="middle" x="75.03" y="-84.95" font-family="Times,serif" font-size="14.00">common_system</text>
</g>
<!-- container_system&#45;&gt;common_system -->
<g id="edge2" class="edge">
<title>container_system&#45;&gt;common_system</title>
<path fill="none" stroke="black" d="M75.03,-36.3C75.03,-43.59 75.03,-52.27 75.03,-60.46"/>
<polygon fill="black" stroke="black" points="71.53,-60.38 75.03,-70.38 78.53,-60.38 71.53,-60.38"/>
</g>
<!-- database_system -->
<g id="node2" class="node">
<title>database_system</title>
<polygon fill="lightgreen" stroke="black" points="379.78,-36 272.28,-36 272.28,0 379.78,0 379.78,-36"/>
<text xml:space="preserve" text-anchor="middle" x="326.03" y="-12.95" font-family="Times,serif" font-size="14.00">database_system</text>
</g>
<!-- network_system -->
<g id="node3" class="node">
<title>network_system</title>
<polygon fill="lightgreen" stroke="black" points="254.66,-36 149.41,-36 149.41,0 254.66,0 254.66,-36"/>
<text xml:space="preserve" text-anchor="middle" x="202.03" y="-12.95" font-family="Times,serif" font-size="14.00">network_system</text>
</g>
<!-- network_system&#45;&gt;common_system -->
<g id="edge8" class="edge">
<title>network_system&#45;&gt;common_system</title>
<path fill="none" stroke="black" d="M170.31,-36.48C153.97,-45.49 133.86,-56.58 116.32,-66.24"/>
<polygon fill="black" stroke="black" points="114.74,-63.12 107.67,-71.01 118.12,-69.25 114.74,-63.12"/>
</g>
<!-- thread_system -->
<g id="node5" class="node">
<title>thread_system</title>
<polygon fill="lightcoral" stroke="black" points="169.41,-324 74.66,-324 74.66,-288 169.41,-288 169.41,-324"/>
<text xml:space="preserve" text-anchor="middle" x="122.03" y="-300.95" font-family="Times,serif" font-size="14.00">thread_system</text>
</g>
<!-- network_system&#45;&gt;thread_system -->
<g id="edge10" class="edge">
<title>network_system&#45;&gt;thread_system</title>
<path fill="none" stroke="black" d="M209.01,-36.28C224.28,-77.08 256.15,-181.24 215.03,-252 206.99,-265.83 193.84,-276.36 179.92,-284.23"/>
<polygon fill="black" stroke="black" points="178.34,-281.11 171.06,-288.81 181.55,-287.33 178.34,-281.11"/>
</g>
<!-- logger_system -->
<g id="node6" class="node">
<title>logger_system</title>
<polygon fill="lightcoral" stroke="black" points="205.78,-252 110.28,-252 110.28,-216 205.78,-216 205.78,-252"/>
<text xml:space="preserve" text-anchor="middle" x="158.03" y="-228.95" font-family="Times,serif" font-size="14.00">logger_system</text>
</g>
<!-- network_system&#45;&gt;logger_system -->
<g id="edge9" class="edge">
<title>network_system&#45;&gt;logger_system</title>
<path fill="none" stroke="black" d="M198.5,-36.15C190.94,-72.93 173.1,-159.71 163.84,-204.76"/>
<polygon fill="black" stroke="black" points="160.46,-203.79 161.88,-214.29 167.32,-205.19 160.46,-203.79"/>
</g>
<!-- monitoring_system -->
<g id="node7" class="node">
<title>monitoring_system</title>
<polygon fill="lightcoral" stroke="black" points="135.91,-180 14.16,-180 14.16,-144 135.91,-144 135.91,-180"/>
<text xml:space="preserve" text-anchor="middle" x="75.03" y="-156.95" font-family="Times,serif" font-size="14.00">monitoring_system</text>
</g>
<!-- common_system&#45;&gt;monitoring_system -->
<g id="edge1" class="edge">
<title>common_system&#45;&gt;monitoring_system</title>
<path fill="none" stroke="black" d="M69.12,-108.3C68.36,-115.59 68.12,-124.27 68.38,-132.46"/>
<polygon fill="black" stroke="black" points="64.89,-132.64 69.04,-142.39 71.87,-132.18 64.89,-132.64"/>
</g>
<!-- thread_system&#45;&gt;common_system -->
<g id="edge11" class="edge">
<title>thread_system&#45;&gt;common_system</title>
<path fill="none" stroke="black" d="M97.07,-287.69C68.56,-266.23 23.49,-226.72 5.03,-180 -0.85,-165.12 -2.09,-158.33 5.03,-144 10.8,-132.39 20.47,-122.64 30.81,-114.8"/>
<polygon fill="black" stroke="black" points="32.54,-117.86 38.74,-109.27 28.53,-112.12 32.54,-117.86"/>
</g>
<!-- logger_system&#45;&gt;common_system -->
<g id="edge3" class="edge">
<title>logger_system&#45;&gt;common_system</title>
<path fill="none" stroke="black" d="M159.24,-215.67C159.75,-196.74 158.14,-166.18 145.03,-144 138.31,-132.63 128.12,-122.89 117.59,-114.97"/>
<polygon fill="black" stroke="black" points="119.75,-112.22 109.55,-109.36 115.74,-117.96 119.75,-112.22"/>
</g>
<!-- logger_system&#45;&gt;thread_system -->
<g id="edge4" class="edge">
<title>logger_system&#45;&gt;thread_system</title>
<path fill="none" stroke="black" d="M149.13,-252.3C145.16,-260.02 140.4,-269.29 135.97,-277.89"/>
<polygon fill="black" stroke="black" points="132.98,-276.06 131.52,-286.55 139.21,-279.26 132.98,-276.06"/>
</g>
<!-- monitoring_system&#45;&gt;common_system -->
<g id="edge5" class="edge">
<title>monitoring_system&#45;&gt;common_system</title>
<path fill="none" stroke="black" d="M80.93,-143.9C81.69,-136.63 81.94,-127.96 81.68,-119.76"/>
<polygon fill="black" stroke="black" points="85.18,-119.57 81.04,-109.81 78.19,-120.02 85.18,-119.57"/>
</g>
<!-- monitoring_system&#45;&gt;thread_system -->
<g id="edge7" class="edge">
<title>monitoring_system&#45;&gt;thread_system</title>
<path fill="none" stroke="black" d="M79.55,-180.21C84.4,-198.25 92.56,-227.34 101.03,-252 103.9,-260.37 107.33,-269.35 110.57,-277.5"/>
<polygon fill="black" stroke="black" points="107.25,-278.61 114.25,-286.56 113.73,-275.98 107.25,-278.61"/>
</g>
<!-- monitoring_system&#45;&gt;logger_system -->
<g id="edge6" class="edge">
<title>monitoring_system&#45;&gt;logger_system</title>
<path fill="none" stroke="black" d="M95.55,-180.3C105.62,-188.8 117.94,-199.19 128.96,-208.49"/>
<polygon fill="black" stroke="black" points="126.4,-210.91 136.31,-214.68 130.92,-205.55 126.4,-210.91"/>
</g>
</g>
</svg>
